<svg id="Ñëîé_1" data-name="Ñëîé 1" xmlns="http://www.w3.org/2000/svg" viewBox="0 0 297.86 297.86"><defs><style>.cls-1{fill:#e8e7ff;}.cls-2{fill:#655dff;}</style></defs><title>icon</title><circle class="cls-1" cx="148.93" cy="148.93" r="148.93"/><path class="cls-2" d="M266.31,290.06c-6.44.28-11.86-2.38-16.08-7.28-15.65-18.14-31.29-36.29-46.72-54.63-7.28-8.65-6.1-19.88,2.29-27.13,8.84-7.64,19.73-7.18,27.42,1.67,9.28,10.66,18.31,21.56,27.17,32.58,2.54,3.16,3.73,3.45,6.46.17q48.78-58.75,97.83-117.31c2-2.43,4.06-4.89,6.84-6.5s5.92-2.62,8.92-.48,3.57,5.18,3.15,8.45a22.26,22.26,0,0,1-3.5,9.24Q337,196.07,294,263.36c-3.77,5.89-7.47,11.82-11.31,17.65S273.74,290.33,266.31,290.06Z" transform="translate(-142.27 -51.07)"/></svg>