<svg id="Layer_1" data-name="Layer 1" xmlns="http://www.w3.org/2000/svg" viewBox="0 0 843.92 844.64"><defs><style>.cls-1{fill:#3897ef;}.cls-2{fill:#fdfdfe;}</style></defs><title>verified</title><path class="cls-1" d="M888.19,826.37c-21.93,0-43.86.1-65.79-.1-4.14,0-6.49,1.36-8.63,4.87-20.24,33.12-40.8,66.05-60.87,99.28-3,4.91-5.12,4.6-9.15,2.1-29.71-18.47-59.54-36.74-89.18-55.3-3.81-2.39-6.38-2.44-10.25-.09-30.68,18.62-61.58,36.86-92.27,55.48-4.53,2.75-6.39,2.33-9.15-2.37-19.45-33.07-39.31-65.9-58.87-98.9-2.26-3.81-4.85-5.09-9.22-5.07-41.15.16-82.3.11-123.44.09-10.27,0-8.87.85-8.88-9.21-.05-41.83-.1-83.65.08-125.47,0-4.83-1.29-7.63-5.59-10.25-35.27-21.51-70.29-43.41-105.55-64.92-4.22-2.58-4.93-4.15-2.21-8.49,19.61-31.39,38.85-63,58.49-94.39,2.43-3.89,2.32-6.4,0-10.23-17.57-28.94-34.76-58.11-52.34-87-2.57-4.24-1.68-5.82,2.24-8.14,33.41-19.77,66.64-39.83,100.07-59.56,4-2.33,4.88-5,4.87-9.23-.14-43.41,0-86.81-.21-130.22,0-5.93,1.15-8,7.64-8,41.37.33,82.75.11,124.12.26,4.34,0,6.76-1.19,9.11-5.06,20.9-34.31,42.14-68.41,63.14-102.66,2.54-4.14,4.25-5.54,9.22-2.42,32.67,20.54,65.67,40.54,98.4,61,4.27,2.67,7.33,2.69,11.54.13,28.17-17.12,56.54-33.89,84.67-51.07,5.18-3.17,7.41-2.79,10.63,2.72,17.86,30.6,36.31,60.85,54.33,91.35,2.59,4.38,5.37,6.11,10.65,6.07,42.72-.25,85.45,0,128.18-.26,5.53,0,7.22,1.29,7.18,7-.25,42.27-.07,84.55-.23,126.82,0,4.55,1.22,7.17,5.31,9.66,33.73,20.54,67.18,41.57,101,62,5.57,3.37,5.12,5.73,2.21,10.38-19.27,30.82-38.19,61.84-57.54,92.6-3.32,5.29-3.34,9.1,0,14.51,18.59,30.41,36.57,61.2,55.16,91.61,3.2,5.24,2.36,7.3-2.59,10.22-32.66,19.26-65.09,38.9-97.76,58.15-4.29,2.53-5.77,5.24-5.75,10.14.19,41.59,0,83.19.23,124.79,0,5.58-1.44,7.36-7.16,7.28C932.06,826.18,910.12,826.37,888.19,826.37Zm-359-329.82c-2.3,2-3.65,3.13-4.93,4.34Q506,518.1,487.82,535.33c-8.54,8.08-8.64,8.21-.62,16.74q57.06,60.78,114.18,121.51c3,3.22,5.22,3.61,8.07.15a50.27,50.27,0,0,1,4.48-4.13q52.41-49.14,104.82-98.27Q782,512,845.33,452.64c3.35-3.13,2.45-4.62-.15-7.35-11.24-11.77-22.5-23.53-33.23-35.75-4.41-5-6.93-4.52-11.55-.16q-91.51,86.24-183.3,172.19c-3.89,3.66-5.81,3.54-9.41-.32-25.08-27-50.42-53.68-75.64-80.51A33,33,0,0,1,529.22,496.55Z" transform="translate(-227.61 -89.68)"/><path class="cls-2" d="M529.22,496.55a33,33,0,0,0,2.83,4.19c25.22,26.83,50.56,53.54,75.64,80.51,3.6,3.86,5.52,4,9.41.32q91.56-86.19,183.3-172.19c4.62-4.36,7.14-4.87,11.55.16,10.73,12.22,22,24,33.23,35.75,2.6,2.73,3.5,4.22.15,7.35Q781.9,511.83,718.75,571.33q-52.38,49.15-104.82,98.27a50.27,50.27,0,0,0-4.48,4.13c-2.85,3.46-5.05,3.07-8.07-.15q-57-60.84-114.18-121.51c-8-8.53-7.92-8.66.62-16.74q18.21-17.25,36.47-34.44C525.57,499.68,526.92,498.57,529.22,496.55Z" transform="translate(-227.61 -89.68)"/></svg>