<svg id="Ñëîé_1" data-name="Ñëîé 1" xmlns="http://www.w3.org/2000/svg" viewBox="0 0 320.41 320.41"><defs><style>.cls-1{fill:#efb9c7;opacity:0.49;}.cls-2{fill:#f20504;}.cls-3{fill:#e60000;}</style></defs><title>wrong</title><circle class="cls-1" cx="160.21" cy="160.21" r="160.21"/><path class="cls-2" d="M293.12,174.78c8-9.81,17.08-18.57,25.88-27.61,10.67-10.94,21.93-21.27,32.87-31.92,7.69-7.48,25.81-6.88,33.24-1.37,3.87,2.87,4.57,6.94,1.34,10.87a94.13,94.13,0,0,1-8.82,8.82c-20.46,19.1-38.84,40.07-56.29,61.9-2.1,2.62-2,4,.7,6.22q26.61,21.45,54.28,41.5c10.15,7.35,14.1,22.39,8.68,33.79-2.9,6.11-7.63,8.45-14.8,6.88-9-2-16.66-6.83-24.13-11.91-16.83-11.44-31.92-25-46.56-39-2.83-2.71-4.07-2.76-6.35.6-11.3,16.66-22.89,33.17-33.1,50.51-5.61,9.53-26.49,12.9-35.36,6.26-3.45-2.58-4.59-6.16-4.33-10.28a42.16,42.16,0,0,1,4.36-15.12c7.93-17,19.13-31.86,30.57-46.56,3.5-4.5,7-9,10.82-13.22,2.16-2.4,1.94-3.83-.24-6.11-16.39-17.19-31.83-35.23-47.2-53.34-8.36-9.85-8.76-20.29-4.57-31.52,3.56-9.54,10.43-10.48,16.76-2.55a535.73,535.73,0,0,0,58,61.41c1.17,1.07,2.15,2.75,4.21,1.78l.34.19ZM316.56,199c0-1.51-.25-3.1-1.43-3.81-7.53-4.53-13.22-11.23-20-16.65-3.66-2.94-5.66-2.81-7.94.81A79.59,79.59,0,0,1,272,197.1c-3.3,2.86-3.2,5.84-.37,8.61,7.32,7.15,14.66,14.29,21.77,21.64,2.13,2.2,3,1.9,4.65-.41,4-5.61,8.27-11,12.39-16.49C313,206.94,315.7,203.44,316.56,199Z" transform="translate(-136.06 -34.02)"/><path class="cls-3" d="M316.22,199c-.86,4.44-3.54,7.94-6.16,11.45-4.12,5.51-8.41,10.88-12.39,16.49-1.64,2.31-2.52,2.61-4.65.41-7.11-7.35-14.45-14.49-21.76-21.64-2.84-2.77-2.94-5.75.36-8.61a79.59,79.59,0,0,0,15.24-17.75c2.29-3.62,4.28-3.75,7.94-.81,6.77,5.42,12.45,12.12,20,16.65C316,195.9,316.24,197.49,316.22,199Z" transform="translate(-136.06 -34.02)"/><path class="cls-3" d="M234.65,203.48l.35.19-.35-.2Z" transform="translate(-136.06 -34.02)"/></svg>