<?xml version="1.0" standalone="no"?>
<!DOCTYPE svg PUBLIC "-//W3C//DTD SVG 20010904//EN"
 "http://www.w3.org/TR/2001/REC-SVG-20010904/DTD/svg10.dtd">
<svg version="1.0" xmlns="http://www.w3.org/2000/svg"
 width="1024.000000pt" height="1024.000000pt" viewBox="0 0 1024.000000 1024.000000"
 preserveAspectRatio="xMidYMid meet">
<metadata>
Created by potrace 1.14, written by Peter Selinger 2001-2017
</metadata>
<g transform="translate(0.000000,1024.000000) scale(0.100000,-0.100000)"
fill="#000000" stroke="none">
<path d="M5040 9430 c-52 -55 -96 -105 -98 -110 -2 -6 -10 -10 -17 -10 -7 0
-15 -9 -18 -21 -3 -12 -10 -18 -16 -14 -10 5 -15 -7 -12 -27 0 -5 -4 -8 -10
-8 -13 0 -49 -38 -49 -52 0 -5 -4 -6 -10 -3 -5 3 -10 2 -10 -2 0 -5 -40 -51
-90 -103 -49 -52 -90 -98 -90 -103 0 -4 -4 -5 -10 -2 -5 3 -10 2 -10 -4 0 -6
-25 -35 -55 -66 -30 -31 -55 -61 -55 -67 0 -6 -7 -8 -15 -4 -8 3 -15 1 -15 -3
0 -5 -8 -8 -17 -7 -10 2 -36 -2 -58 -9 -23 -6 -49 -11 -58 -9 -9 1 -17 -1 -17
-5 0 -6 -25 -11 -67 -14 -7 0 -13 -3 -13 -6 0 -4 -12 -8 -26 -9 -15 -1 -32 -6
-39 -12 -6 -5 -15 -7 -18 -4 -3 3 -12 2 -19 -2 -11 -7 -26 -11 -65 -16 -7 -1
-13 -4 -13 -8 0 -4 -6 -7 -12 -8 -44 -5 -78 -16 -78 -23 0 -5 -3 -8 -7 -7 -14
3 -98 -26 -105 -37 -4 -5 -8 -7 -8 -3 0 4 -19 -1 -42 -12 -23 -10 -46 -16 -50
-14 -4 3 -8 0 -8 -5 0 -6 -3 -10 -7 -9 -5 1 -18 -3 -30 -10 -13 -7 -23 -10
-23 -7 0 4 -7 -1 -16 -9 -8 -9 -22 -16 -30 -16 -8 0 -26 -7 -39 -16 -14 -9
-25 -12 -25 -8 0 5 -7 1 -14 -9 -8 -10 -16 -17 -18 -16 -8 5 -48 -13 -48 -22
0 -5 -3 -8 -7 -8 -15 3 -73 -23 -73 -32 0 -5 -8 -9 -19 -9 -10 0 -24 -7 -31
-15 -7 -8 -16 -12 -21 -9 -5 3 -9 1 -9 -4 0 -5 -13 -15 -30 -22 -16 -7 -30
-16 -30 -19 0 -4 -16 -13 -35 -21 -19 -8 -35 -17 -35 -21 0 -3 -13 -12 -30
-19 -16 -7 -30 -16 -30 -21 0 -5 -7 -9 -15 -9 -7 0 -18 -7 -23 -16 -5 -9 -11
-14 -13 -12 -2 1 -22 -10 -44 -26 -109 -81 -150 -111 -155 -117 -3 -3 -30 -25
-60 -48 -30 -24 -59 -49 -63 -57 -4 -8 -12 -14 -17 -14 -5 0 -34 -25 -65 -55
-30 -30 -60 -55 -65 -55 -6 0 -10 -4 -10 -8 0 -13 -117 -131 -124 -125 -3 4
-6 -1 -6 -11 0 -9 -7 -19 -15 -22 -8 -4 -15 -13 -15 -21 0 -8 -4 -11 -10 -8
-5 3 -10 0 -10 -7 0 -7 -12 -24 -25 -37 -14 -13 -25 -27 -25 -33 0 -5 -4 -6
-10 -3 -5 3 -10 1 -10 -6 0 -7 -7 -19 -15 -28 -27 -30 -60 -69 -75 -91 -8 -13
-20 -28 -25 -34 -6 -6 -28 -37 -49 -68 -22 -32 -43 -58 -48 -58 -4 0 -7 -3 -5
-8 4 -13 -77 -131 -87 -125 -5 4 -6 1 -2 -5 7 -12 -13 -62 -26 -62 -4 0 -8 -7
-8 -16 0 -8 -4 -13 -9 -9 -6 3 -8 -4 -6 -15 2 -11 -2 -23 -8 -27 -16 -10 -81
-133 -70 -133 4 0 1 -6 -8 -13 -9 -7 -17 -15 -17 -20 -1 -4 -13 -30 -27 -59
-14 -28 -25 -58 -25 -65 0 -7 -5 -13 -11 -13 -5 0 -7 -4 -4 -10 3 -5 2 -10 -4
-10 -5 0 -8 -9 -6 -21 3 -15 0 -19 -11 -15 -9 3 -12 2 -9 -4 9 -14 -4 -52 -16
-45 -5 3 -6 -1 -3 -10 4 -8 1 -21 -5 -29 -6 -7 -9 -15 -6 -17 2 -3 -5 -11 -17
-18 -11 -7 -17 -8 -13 -2 3 6 0 11 -8 11 -8 0 -20 7 -27 15 -7 8 -16 12 -21 9
-5 -3 -9 0 -9 5 0 6 -6 11 -14 11 -8 0 -16 5 -18 11 -2 5 -10 11 -18 12 -8 2
-43 19 -78 40 -35 20 -67 37 -72 37 -4 0 -10 3 -12 8 -1 4 -32 22 -68 41 -36
19 -68 39 -72 45 -4 6 -8 7 -8 3 0 -4 -15 3 -33 17 -19 14 -37 23 -40 19 -4
-3 -7 -1 -7 6 0 7 -5 9 -10 6 -6 -3 -10 -1 -10 4 0 6 -7 11 -15 11 -8 0 -15 5
-15 11 0 5 -4 8 -9 5 -5 -3 -20 3 -33 14 -14 11 -28 16 -32 13 -3 -3 -6 -1 -6
5 0 7 -6 12 -14 12 -8 0 -16 4 -18 9 -1 5 -10 11 -18 13 -8 2 -17 6 -20 9 -7
8 -106 64 -162 91 -27 13 -48 26 -48 30 0 5 -9 8 -21 8 -11 0 -17 5 -14 10 3
6 -3 10 -14 10 -11 0 -22 4 -25 9 -3 5 -23 18 -43 29 -95 50 -108 58 -116 70
-4 6 -15 12 -23 12 -14 0 -54 19 -64 31 -3 3 -12 9 -20 12 -8 4 -42 23 -75 42
-33 19 -72 40 -87 46 -16 6 -28 15 -28 20 0 5 -9 9 -21 9 -11 0 -18 4 -15 9 3
4 -13 14 -34 21 -22 7 -40 17 -40 22 0 17 -28 7 -33 -12 -3 -13 -1 -18 5 -13
7 3 8 1 4 -6 -13 -20 -18 -63 -6 -56 6 3 7 0 4 -9 -3 -9 -9 -14 -13 -12 -3 2
-6 -30 -5 -72 0 -43 -3 -82 -7 -87 -5 -6 -4 -17 1 -25 5 -8 4 -22 -2 -34 -8
-15 -8 -21 1 -24 6 -2 11 -8 11 -13 0 -6 -3 -8 -8 -5 -10 6 -9 -55 1 -71 4 -6
3 -14 -2 -17 -9 -6 -12 -55 -14 -233 0 -61 -5 -110 -9 -107 -4 3 -8 0 -8 -5 0
-6 4 -11 10 -11 12 0 9 -22 -5 -32 -6 -5 -5 -8 4 -8 10 0 11 -3 3 -13 -7 -8
-7 -18 -2 -27 5 -9 5 -19 -2 -27 -8 -10 -7 -13 3 -13 11 0 11 -2 -1 -10 -12
-8 -12 -10 -1 -10 11 0 11 -3 0 -17 -8 -10 -9 -14 -2 -10 17 10 8 -34 -9 -45
-9 -5 -8 -8 5 -8 14 0 16 -4 8 -18 -7 -13 -6 -23 1 -30 9 -9 9 -12 -2 -12 -10
0 -11 -3 -3 -11 8 -8 8 -20 3 -35 -5 -13 -6 -26 -1 -28 9 -6 7 -49 -4 -67 -4
-6 -1 -15 6 -20 12 -8 12 -11 -1 -19 -12 -8 -12 -10 -1 -10 10 0 11 -3 2 -14
-9 -10 -9 -16 -1 -21 8 -5 8 -11 -1 -21 -9 -11 -8 -14 2 -14 11 0 11 -2 -1
-10 -8 -5 -10 -10 -4 -10 6 0 11 -7 11 -15 0 -10 -6 -14 -16 -10 -13 4 -12 2
2 -9 17 -13 25 -32 9 -22 -10 6 -9 -45 1 -60 7 -12 2 -47 -9 -66 -4 -6 -3 -8
3 -5 6 4 9 -27 9 -84 -1 -50 2 -93 7 -96 4 -2 4 -10 0 -16 -12 -20 -12 -37 0
-37 7 0 5 -5 -3 -10 -8 -5 -10 -10 -4 -10 7 0 9 -11 6 -25 -2 -14 2 -33 9 -42
10 -12 10 -14 2 -9 -17 10 -17 -35 0 -53 7 -8 7 -11 1 -8 -7 4 -11 -3 -11 -18
0 -14 5 -25 11 -25 6 0 4 -5 -4 -10 -8 -5 -10 -10 -5 -10 6 0 3 -5 -5 -10 -13
-8 -13 -10 2 -10 15 0 16 -4 8 -25 -6 -17 -6 -25 1 -25 6 0 7 -6 1 -17 -5 -9
-7 -28 -3 -42 8 -34 7 -53 -3 -70 -6 -9 -5 -12 1 -8 6 4 9 -12 9 -43 -1 -28 2
-50 7 -50 5 0 5 -6 -2 -13 -8 -10 -7 -17 1 -25 9 -9 7 -12 -7 -13 -19 0 -19
-1 0 -9 11 -5 14 -9 6 -9 -10 -1 -10 -7 4 -27 9 -15 12 -23 6 -19 -8 4 -10 -2
-7 -20 3 -15 8 -30 10 -33 3 -3 1 -11 -5 -19 -9 -10 -8 -13 1 -13 10 0 10 -4
-1 -16 -7 -9 -9 -18 -3 -22 12 -9 15 -44 3 -36 -5 3 -4 -7 3 -21 10 -22 9 -28
-3 -36 -12 -7 -12 -9 0 -9 8 0 11 -3 8 -7 -4 -3 -2 -12 4 -20 9 -10 8 -13 0
-13 -7 0 -9 -5 -5 -12 5 -7 8 -29 9 -48 0 -19 3 -40 7 -45 4 -6 3 -17 -2 -25
-5 -9 -5 -19 1 -26 7 -8 6 -14 -1 -19 -8 -5 -8 -11 0 -19 5 -7 11 -25 12 -40
1 -14 6 -26 11 -26 5 0 4 -7 -4 -16 -10 -13 -10 -17 1 -24 8 -5 11 -12 8 -16
-4 -3 -2 -21 5 -38 7 -17 12 -43 12 -58 -1 -16 3 -28 9 -28 5 0 6 -3 3 -7 -4
-3 -1 -13 6 -21 10 -13 9 -14 -3 -7 -9 5 -7 -1 5 -15 11 -13 15 -20 9 -17 -12
7 -29 -21 -19 -31 3 -3 5 0 5 6 0 7 5 12 12 12 6 0 8 -3 5 -7 -4 -3 -2 -12 4
-19 5 -7 11 -28 12 -47 1 -19 5 -33 9 -30 7 4 13 -28 9 -49 0 -5 3 -8 9 -8 5
0 10 -14 10 -31 0 -16 4 -28 8 -25 9 5 11 -5 14 -56 1 -15 6 -24 10 -22 5 3 5
10 2 16 -4 6 -3 8 3 5 6 -4 9 -22 8 -42 -1 -19 1 -33 3 -30 2 2 10 -2 17 -8
11 -10 10 -16 -3 -32 -15 -17 -15 -18 -1 -7 14 11 18 8 30 -20 7 -18 18 -36
23 -40 7 -5 6 -8 -3 -8 -11 0 -10 -5 4 -20 10 -11 14 -20 9 -20 -5 0 -4 -4 1
-8 18 -13 37 -60 30 -73 -5 -7 -4 -10 3 -5 12 7 35 -27 25 -38 -3 -3 -1 -6 5
-6 7 0 12 -7 12 -16 0 -9 8 -23 18 -31 11 -10 12 -12 2 -8 -10 4 -9 2 2 -8 10
-8 18 -24 18 -36 0 -12 4 -19 10 -16 9 5 12 -1 9 -21 0 -3 8 -12 18 -21 11 -9
12 -12 3 -8 -10 4 -9 2 3 -8 9 -8 17 -19 17 -26 0 -6 5 -11 11 -11 5 0 8 -4 4
-9 -3 -5 5 -17 17 -27 18 -13 19 -15 4 -10 -12 4 -8 -4 13 -23 17 -16 31 -36
31 -44 0 -8 10 -22 23 -31 12 -9 17 -15 11 -12 -6 3 -11 -1 -11 -9 0 -8 3 -14
6 -13 3 0 13 0 21 -1 13 -1 13 -2 0 -11 -13 -8 -12 -10 3 -10 10 0 16 -4 13
-8 -3 -5 4 -14 14 -22 10 -8 17 -17 14 -22 -3 -4 0 -8 6 -8 7 0 9 -9 6 -22 -3
-13 -3 -17 0 -10 8 18 24 15 17 -3 -3 -9 -1 -15 5 -13 5 2 10 0 11 -4 1 -5 10
-17 21 -28 12 -12 18 -25 15 -30 -4 -6 1 -7 11 -3 11 4 15 2 11 -4 -4 -6 4
-22 18 -34 13 -13 25 -28 25 -32 0 -5 14 -22 30 -37 20 -19 26 -30 18 -33 -10
-4 -10 -6 -1 -6 13 -1 53 -36 53 -47 0 -3 13 -18 29 -34 22 -19 27 -30 19 -38
-8 -8 -4 -9 13 -6 19 5 21 4 9 -5 -13 -9 -13 -11 1 -11 9 0 22 -7 29 -15 10
-13 9 -19 -6 -38 l-19 -22 22 19 c22 18 22 18 56 -18 19 -20 33 -36 31 -36 -3
0 18 -21 46 -46 27 -26 47 -52 43 -57 -4 -6 0 -8 11 -4 14 5 17 3 12 -8 -4
-10 1 -15 14 -15 11 0 20 -7 20 -16 0 -8 4 -13 9 -9 5 3 12 -4 16 -15 3 -11
10 -20 14 -20 4 0 16 -7 27 -15 18 -14 18 -14 -5 -10 -13 2 -21 1 -17 -2 4 -4
16 -8 28 -10 22 -3 58 -35 58 -50 0 -5 14 -14 31 -20 17 -7 28 -17 24 -22 -3
-6 1 -11 9 -11 9 0 16 -5 16 -12 0 -6 3 -8 7 -5 3 4 13 -2 20 -13 8 -11 18
-18 23 -15 5 3 11 -4 15 -15 3 -11 12 -20 18 -20 7 0 19 -9 27 -19 7 -11 17
-18 22 -15 4 3 8 0 8 -5 0 -6 -5 -11 -12 -11 -6 0 -8 -3 -5 -6 4 -4 12 -2 20
4 10 8 16 6 27 -11 8 -12 14 -25 15 -29 0 -3 4 -10 9 -15 5 -5 6 -3 2 5 -4 7
-1 12 8 12 14 0 20 -11 18 -31 -1 -4 8 -4 20 -1 16 4 20 2 15 -10 -4 -12 0
-14 16 -10 12 3 19 1 15 -3 -5 -5 2 -13 15 -20 12 -6 21 -16 20 -21 -1 -6 8
-11 19 -11 12 -1 24 -6 27 -11 3 -5 16 -12 28 -16 14 -4 20 -12 16 -22 -4 -10
0 -12 11 -8 19 7 21 -6 3 -26 -6 -8 -2 -6 11 4 13 12 22 15 22 7 0 -7 4 -9 10
-6 5 3 10 -1 10 -10 0 -9 4 -14 9 -10 5 3 16 -2 24 -10 9 -8 20 -15 24 -15 5
0 18 -8 29 -18 22 -21 22 -21 52 -28 12 -4 22 -10 22 -15 0 -5 6 -8 12 -7 7 2
12 -3 10 -10 -1 -6 1 -11 5 -10 14 4 53 -13 53 -23 0 -5 9 -9 20 -9 11 0 20
-4 20 -10 0 -5 7 -10 15 -10 8 0 15 -5 15 -11 0 -5 4 -8 9 -4 5 3 12 1 16 -5
3 -5 15 -10 25 -10 25 0 35 -17 19 -36 -10 -12 -9 -13 5 -8 9 3 16 10 16 16 0
5 5 6 10 3 6 -4 7 -12 4 -18 -5 -9 -3 -9 6 0 11 10 17 8 32 -9 12 -14 18 -17
18 -7 0 8 3 10 8 4 4 -6 19 -16 34 -24 23 -12 26 -17 16 -30 -9 -11 -6 -10 9
2 13 12 22 14 25 7 2 -6 10 -12 18 -14 32 -5 60 -18 60 -27 0 -5 12 -9 26 -9
18 0 24 -4 21 -13 -4 -10 2 -13 20 -9 17 3 24 1 19 -6 -3 -6 -2 -14 4 -17 6
-4 9 -3 8 2 -2 4 0 9 4 10 13 4 38 -9 34 -16 -3 -4 3 -7 12 -7 29 -1 46 -8 59
-24 9 -11 12 -12 13 -2 0 7 5 10 10 7 6 -4 8 -10 5 -15 -3 -4 1 -8 8 -7 44 1
59 -3 49 -16 -9 -10 -4 -12 23 -9 30 4 34 2 30 -17 -2 -12 0 -19 6 -16 5 4 7
10 4 15 -3 5 -1 11 5 15 5 3 10 1 10 -4 0 -6 7 -11 16 -11 9 0 12 -5 8 -12 -5
-8 0 -7 11 2 17 14 18 13 12 -4 -7 -17 -6 -17 10 -5 15 13 16 12 9 -6 -6 -16
-5 -18 5 -7 15 14 33 16 24 2 -4 -6 6 -8 24 -6 19 2 31 -1 31 -8 0 -7 17 -13
37 -14 21 -2 41 -8 45 -15 4 -7 8 -9 8 -5 0 4 19 0 42 -8 24 -8 57 -15 75 -16
18 -1 33 -5 33 -10 0 -5 -4 -6 -10 -3 -5 3 -10 1 -10 -5 0 -6 -4 -9 -8 -6 -5
3 -9 -1 -9 -9 0 -11 4 -12 14 -4 7 6 13 8 13 3 0 -4 7 1 15 12 13 17 14 17 15
2 0 -9 4 -20 10 -23 6 -3 7 1 4 9 -3 9 -1 16 5 16 6 0 11 -6 11 -12 0 -9 4 -8
10 2 6 10 10 11 10 2 0 -6 3 -11 8 -11 4 1 17 1 30 0 19 -1 22 -5 17 -23 -5
-19 -4 -20 5 -6 7 12 19 15 43 11 17 -3 40 -6 50 -6 9 -1 17 -5 17 -10 0 -4 4
-6 9 -3 5 3 12 -1 15 -10 4 -11 10 -13 19 -7 13 11 52 10 81 -2 10 -4 30 -9
45 -10 14 -1 33 -5 41 -8 8 -3 33 -8 55 -10 22 -2 45 -6 50 -9 6 -3 22 -4 38
-2 15 1 27 -2 27 -7 0 -6 5 -7 11 -3 6 3 15 0 20 -7 7 -12 9 -11 9 1 0 13 1
13 10 0 7 -11 10 -11 10 -2 0 7 4 11 10 7 5 -3 6 -13 3 -23 -5 -16 -5 -16 8 0
14 18 42 19 56 3 4 -4 2 -5 -6 0 -9 5 -12 4 -7 -3 4 -6 13 -9 21 -6 8 4 12 11
8 17 -3 6 -1 7 5 3 29 -17 49 -14 47 7 -1 12 2 28 8 35 6 8 6 12 0 12 -6 0 -8
16 -5 38 3 20 5 52 5 70 0 17 5 32 10 32 5 0 4 7 -3 15 -10 12 -10 15 1 15 11
0 11 2 -1 10 -8 5 -10 10 -5 10 6 0 10 32 9 78 0 42 4 83 9 89 6 9 5 13 -2 13
-7 0 -9 5 -5 12 13 21 14 59 1 51 -7 -4 -6 0 2 10 7 9 10 17 6 17 -4 0 -2 6 4
14 7 8 8 17 3 20 -7 4 -8 37 -2 56 1 3 2 24 2 47 0 26 4 43 11 43 8 0 8 3 2 8
-5 4 -11 14 -11 23 -1 12 4 15 18 11 14 -3 18 -11 14 -25 -3 -14 -2 -17 6 -9
12 12 61 -5 52 -19 -3 -5 2 -9 10 -9 9 0 16 -4 16 -10 0 -5 7 -10 15 -10 8 0
15 -4 15 -9 0 -5 13 -14 30 -21 16 -7 32 -21 35 -31 4 -11 11 -17 16 -14 5 4
9 -1 9 -9 0 -9 9 -16 20 -16 20 0 21 -2 24 -40 0 -10 7 -25 15 -32 12 -11 12
-10 5 2 -12 21 -14 39 -4 45 5 3 11 -4 15 -15 3 -11 12 -20 19 -20 8 0 21 -10
30 -23 9 -12 14 -16 10 -8 -5 9 -3 12 5 7 9 -6 9 -11 0 -22 -10 -12 -9 -13 5
-8 19 7 81 -50 71 -66 -3 -5 0 -12 6 -16 7 -4 9 -3 5 4 -3 6 -2 13 4 17 5 3
10 -1 10 -10 0 -9 4 -13 10 -10 6 3 10 -2 10 -11 0 -10 3 -15 6 -11 7 6 28
-11 34 -28 2 -5 16 -16 31 -24 16 -7 26 -17 23 -22 -3 -5 0 -9 6 -9 15 0 40
-25 40 -41 0 -7 3 -10 6 -6 8 7 54 -38 54 -53 0 -6 3 -9 8 -6 4 2 16 -2 27
-10 10 -8 16 -14 12 -14 -5 0 -2 -6 5 -14 7 -8 16 -12 21 -9 4 2 7 -3 7 -12 0
-9 5 -13 10 -10 14 9 12 -8 -2 -25 -11 -12 -10 -12 5 0 14 10 20 11 26 2 5 -8
15 -4 33 13 14 13 29 21 32 18 3 -4 6 -1 6 6 0 7 7 11 14 8 10 -4 13 -1 9 8
-3 9 3 18 13 22 11 3 34 21 52 40 18 18 38 30 44 27 6 -4 8 -3 5 3 -8 12 61
75 74 67 5 -3 9 -2 8 3 -1 4 -1 14 0 22 1 11 4 11 18 0 9 -8 14 -9 10 -2 -4 6
-4 18 -1 27 5 14 9 14 22 4 10 -8 13 -9 9 -1 -9 15 2 45 14 37 5 -3 13 6 19
20 11 29 23 36 14 9 -4 -10 3 -3 15 14 11 18 29 33 38 33 15 0 16 2 3 10 -13
8 -12 10 3 10 9 0 17 5 17 10 0 6 7 10 16 10 8 0 13 4 10 9 -3 5 1 12 10 15 8
3 12 10 9 16 -4 6 1 7 11 3 10 -4 15 -2 11 3 -3 6 7 18 24 28 16 10 26 22 23
28 -4 6 -2 8 3 5 6 -4 14 0 17 9 5 14 9 14 23 3 10 -8 14 -9 10 -2 -8 12 41
65 53 58 3 -2 14 7 24 21 11 13 23 24 29 24 6 0 25 11 43 25 18 14 35 25 37
25 2 0 3 -20 2 -45 -2 -32 0 -43 8 -38 7 4 7 0 -1 -9 -9 -11 -10 -18 -2 -23 6
-3 7 -11 3 -18 -11 -17 -11 -71 0 -78 5 -4 6 -13 1 -20 -12 -20 -14 -38 -3
-45 6 -4 6 -10 0 -17 -14 -18 -14 -29 1 -38 10 -7 10 -9 0 -9 -9 0 -10 -5 -3
-19 6 -10 7 -21 4 -25 -11 -10 -9 -56 2 -56 6 0 7 -3 0 -8 -12 -9 -16 -82 -4
-82 5 0 9 -5 9 -11 0 -5 -4 -8 -8 -5 -5 3 -8 -17 -8 -45 0 -27 4 -49 9 -49 4
0 5 -5 1 -12 -11 -18 -13 -58 -3 -58 6 0 7 -5 4 -10 -10 -17 -13 -80 -4 -80 5
0 6 -8 3 -17 -5 -16 -4 -16 6 -3 9 11 13 12 17 3 3 -10 8 -10 19 1 10 11 22
12 45 6 25 -7 29 -7 20 4 -8 9 -6 12 7 11 9 0 23 -4 30 -9 7 -4 15 -1 18 8 3
9 10 13 15 10 5 -3 7 -10 4 -15 -3 -5 1 -6 9 -3 9 3 13 10 10 15 -5 9 6 11 54
12 12 1 22 5 22 10 0 4 4 6 9 3 5 -4 20 -2 33 3 15 5 31 5 41 0 13 -8 15 -6
11 5 -4 11 0 14 15 11 11 -2 23 1 27 6 4 6 11 6 20 -2 11 -9 14 -8 14 3 0 15
26 18 47 5 6 -4 15 -2 19 4 5 8 3 9 -7 4 -8 -5 -11 -4 -6 1 5 5 16 9 25 9 9 1
26 5 37 11 11 6 36 10 57 10 20 -1 34 2 31 7 -4 7 11 11 35 8 6 -1 12 3 12 9
0 5 5 10 11 10 5 0 7 -6 3 -12 -4 -7 1 -6 12 3 10 9 25 14 32 12 6 -3 12 0 12
6 0 7 11 9 26 7 16 -3 27 0 31 10 3 7 9 12 13 9 4 -3 27 2 50 10 23 8 46 13
50 10 5 -3 11 -1 15 5 4 6 11 8 16 5 5 -4 9 0 9 7 0 9 3 9 10 -2 8 -12 10 -12
10 5 0 17 2 18 11 5 8 -11 12 -12 16 -2 2 6 11 12 19 12 8 0 14 6 14 13 0 9 2
9 9 -1 4 -8 12 -14 17 -15 5 -1 8 -6 6 -10 -1 -5 2 -6 8 -2 8 5 8 11 1 19 -15
18 -2 27 20 15 14 -7 19 -7 17 3 -2 7 8 14 22 16 14 2 28 9 32 16 5 7 8 7 8
-3 0 -12 3 -11 13 2 6 9 23 19 37 21 14 3 25 5 25 6 0 1 9 3 19 5 10 2 22 7
25 12 3 4 15 8 26 8 11 -1 23 3 26 8 4 5 23 10 43 11 19 1 39 6 43 11 5 4 2 5
-4 1 -7 -4 -13 -2 -13 3 0 6 6 11 13 11 6 0 24 7 39 14 16 9 30 11 33 5 4 -5
12 -9 18 -8 9 0 9 2 0 6 -7 2 -13 9 -13 14 0 6 4 8 9 4 5 -3 15 1 23 8 7 8 19
12 26 9 6 -2 12 2 12 10 0 8 4 7 11 -5 5 -9 7 -22 3 -29 -4 -7 -3 -8 5 -4 6 4
9 16 6 27 -4 13 -2 19 9 19 9 0 16 5 16 11 0 6 6 9 14 6 8 -3 17 1 20 10 4 9
9 13 13 9 3 -3 15 2 26 11 11 10 17 12 13 5 -4 -6 -2 -12 3 -12 6 0 11 4 11 9
0 8 37 24 53 22 4 -1 7 3 7 8 0 8 53 34 65 32 3 -1 14 8 25 19 12 12 26 17 36
13 12 -5 15 -3 9 6 -6 11 -3 11 16 0 23 -12 23 -11 9 6 -14 17 -13 18 8 13 12
-4 20 -2 16 3 -3 5 2 9 10 9 9 0 16 3 16 8 0 4 11 12 25 19 19 8 24 8 19 0 -3
-7 3 -2 13 11 15 18 21 20 31 10 11 -11 12 -9 6 6 -5 13 -4 17 4 12 7 -4 12
-2 12 3 0 6 5 11 12 11 6 0 20 8 31 17 11 10 17 12 13 6 -5 -9 -2 -11 9 -7 9
4 14 13 11 21 -3 8 -1 11 4 8 6 -3 10 0 10 7 0 9 3 9 10 -2 7 -12 10 -12 10
-1 0 8 6 11 16 7 8 -3 12 -2 9 4 -4 6 7 18 24 28 17 9 31 21 31 25 0 5 5 5 10
2 6 -3 10 -1 10 5 0 6 5 8 10 5 6 -3 10 -1 10 5 0 6 5 8 10 5 6 -3 10 -1 10 6
0 7 3 10 6 7 3 -3 16 5 30 19 14 14 31 22 40 19 8 -3 13 -2 10 2 -8 13 10 33
32 35 11 0 19 4 16 8 -2 4 3 12 11 19 8 7 15 9 15 6 0 -8 23 10 48 36 12 13
19 15 29 6 11 -8 12 -7 7 6 -3 9 -1 16 6 16 6 0 8 5 4 12 -5 7 -2 9 8 6 8 -4
20 2 27 13 6 11 16 17 21 14 6 -3 10 1 10 9 0 10 6 13 17 9 10 -4 14 -2 9 5
-3 6 3 13 14 17 11 3 20 13 20 20 0 9 6 12 15 8 10 -3 15 0 13 8 -2 8 3 13 10
11 6 -1 12 5 12 13 0 8 6 15 14 15 8 0 26 14 40 31 14 17 26 26 26 20 0 -6 4
-11 10 -11 5 0 7 7 3 16 -4 10 1 17 14 20 11 3 30 19 43 36 12 16 28 27 35 24
9 -3 12 0 9 8 -8 20 14 30 34 15 14 -11 15 -11 5 1 -17 19 -16 30 3 30 8 0 13
3 11 8 -6 9 19 33 26 26 3 -3 8 3 11 14 4 11 14 23 22 26 8 3 12 10 9 16 -3 5
-2 10 4 10 13 0 91 79 91 92 0 6 6 5 15 -2 13 -11 14 -10 10 1 -6 15 72 116
86 111 5 -1 9 4 9 12 0 8 7 17 16 20 9 3 12 11 8 18 -5 7 -2 9 8 5 11 -4 15 0
14 11 -2 9 7 26 18 37 12 11 33 37 46 57 13 20 28 34 32 32 4 -3 8 2 8 10 0 9
4 16 10 16 5 0 7 8 3 18 -3 9 -3 14 1 10 10 -9 36 14 28 26 -3 5 2 14 10 20 8
6 17 19 21 30 5 12 13 16 25 11 14 -5 15 -4 5 6 -15 15 -17 33 -3 24 6 -3 10
1 10 9 0 9 5 16 10 16 6 0 9 3 9 8 -3 18 2 35 8 29 4 -4 13 7 20 24 7 17 17
28 23 24 6 -4 7 1 3 10 -3 10 -2 20 4 24 5 3 17 23 27 44 9 20 21 35 26 32 5
-3 7 4 5 16 -3 15 0 19 10 15 8 -3 17 0 21 6 4 6 3 8 -4 4 -6 -3 -13 -2 -16 3
-3 5 1 12 10 15 10 4 14 14 11 26 -3 11 0 18 6 17 6 -1 11 5 12 13 1 8 6 14
12 13 6 -1 9 6 6 17 -4 15 0 20 13 20 11 0 15 4 9 8 -13 9 -18 35 -5 27 9 -5
15 15 11 38 0 4 5 7 13 7 10 0 12 7 8 22 -4 16 -2 20 10 16 11 -5 14 -1 10 17
-2 12 1 26 7 29 6 4 11 16 11 26 0 10 10 26 23 36 15 11 17 15 4 10 -15 -5
-16 -3 -7 15 6 11 15 17 19 15 4 -3 6 6 3 20 -3 15 0 29 6 33 6 3 12 18 14 32
2 14 12 38 22 54 10 15 13 24 6 20 -9 -6 -9 -3 -1 12 5 11 12 31 15 44 8 44
11 54 19 60 4 3 10 25 13 50 7 58 12 71 24 64 6 -4 7 2 1 17 -6 17 -4 26 8 35
12 9 13 12 2 13 -11 0 -11 3 -1 15 6 8 9 18 6 23 -3 5 1 21 9 36 8 14 10 24 5
21 -12 -7 -2 24 14 44 8 11 8 13 -1 7 -7 -4 -13 -2 -13 3 0 6 3 11 8 11 4 0 8
21 10 48 2 26 4 59 5 75 1 15 5 27 8 27 3 0 5 10 4 23 -1 12 2 30 7 41 6 12 6
16 0 12 -10 -6 -8 28 3 57 5 11 2 17 -6 17 -11 0 -12 2 -1 9 7 4 12 12 11 17
-1 5 0 14 1 19 1 6 2 31 2 58 -1 30 3 47 11 47 8 0 8 3 2 8 -15 11 -17 39 -5
62 7 13 7 20 0 20 -5 0 -10 5 -10 11 0 5 4 8 8 5 11 -6 9 25 -2 42 -4 7 -2 19
4 27 10 12 10 15 -1 15 -11 0 -11 2 1 10 12 8 12 10 1 10 -11 0 -11 3 -1 15 7
8 8 15 3 15 -11 0 -11 29 1 48 4 7 2 12 -5 12 -8 0 -8 4 1 15 9 11 9 15 1 15
-9 0 -9 5 0 22 10 18 9 20 -7 14 -17 -7 -17 -6 0 13 11 12 13 21 7 25 -13 8
-10 68 4 78 7 5 6 8 -1 8 -6 0 -11 35 -12 90 -1 50 -4 95 -7 100 -3 5 -1 11 4
14 6 4 6 18 1 36 -5 17 -5 30 0 30 5 0 6 8 3 17 -8 21 -9 66 0 79 3 5 2 16 -3
24 -5 8 -5 21 1 31 5 10 5 20 1 23 -4 2 -7 26 -6 53 1 26 -3 57 -9 68 -9 18
-9 19 8 5 17 -14 17 -14 7 6 -6 12 -8 24 -5 28 3 3 0 6 -8 6 -12 0 -12 2 0 9
13 8 13 12 0 27 -13 16 -12 17 5 11 16 -7 17 -5 6 9 -11 12 -11 17 -1 23 9 6
8 10 -5 15 -14 6 -16 9 -5 15 10 6 10 10 2 16 -9 5 -9 10 0 21 9 11 9 14 0 14
-7 0 -9 5 -6 10 4 6 12 8 18 4 7 -3 3 2 -7 10 -13 10 -15 16 -7 16 11 0 11 3
2 14 -10 11 -8 17 6 25 17 10 17 10 -1 11 -15 0 -16 3 -6 15 10 12 10 15 -1
15 -8 0 -5 6 7 15 12 9 13 13 4 10 -11 -4 -16 1 -16 15 0 11 5 20 11 20 5 0 4
4 -4 9 -9 6 -10 10 -2 16 9 5 9 11 -1 23 -11 14 -10 15 7 9 17 -6 18 -5 5 5
-18 15 -21 89 -5 100 6 5 6 8 -2 8 -13 0 -12 18 1 39 6 9 5 12 -1 8 -11 -7
-12 107 -1 118 4 4 2 16 -5 26 -9 15 -8 21 8 34 12 9 14 13 5 10 -14 -5 -16
35 -15 351 0 196 -3 361 -7 367 -5 8 -11 7 -21 -1 -7 -7 -17 -9 -20 -5 -4 3
-7 1 -7 -5 0 -7 -7 -12 -15 -12 -8 0 -15 -4 -15 -9 0 -5 -10 -13 -22 -17 -13
-4 -34 -15 -47 -25 -13 -10 -27 -16 -32 -13 -5 3 -9 1 -9 -5 0 -5 -20 -20 -45
-32 -25 -12 -45 -27 -45 -31 0 -5 -5 -6 -11 -2 -6 3 -14 2 -18 -3 -3 -5 -28
-22 -56 -38 -27 -16 -58 -35 -67 -43 -10 -8 -18 -12 -18 -8 0 4 -7 0 -16 -8
-8 -9 -22 -16 -30 -16 -8 0 -14 -3 -14 -8 0 -4 -15 -13 -32 -21 -18 -8 -35
-18 -38 -22 -3 -4 -12 -9 -20 -11 -8 -2 -23 -11 -32 -21 -9 -10 -18 -17 -20
-16 -7 5 -48 -13 -48 -21 0 -4 -12 -13 -27 -19 -30 -12 -65 -32 -73 -43 -3 -3
-18 -10 -33 -13 -15 -4 -31 -13 -35 -20 -4 -8 -11 -15 -17 -16 -5 -1 -26 -12
-45 -24 -36 -23 -97 -57 -159 -89 -20 -10 -38 -21 -41 -25 -11 -14 -68 -40
-74 -34 -3 3 -6 -1 -6 -11 0 -9 -4 -14 -10 -11 -5 3 -10 1 -10 -5 0 -6 -4 -8
-10 -5 -5 3 -10 2 -10 -4 0 -6 -11 -13 -25 -17 -14 -3 -25 -10 -25 -16 0 -5
-4 -6 -10 -3 -5 3 -10 1 -10 -4 0 -6 -7 -11 -15 -11 -8 0 -15 -5 -15 -12 0 -6
-3 -9 -6 -5 -4 3 -22 -5 -42 -18 -19 -13 -40 -21 -46 -18 -6 3 -8 3 -4 -2 4
-4 -9 -16 -28 -27 -35 -19 -37 -19 -53 -1 -10 10 -16 24 -13 31 2 6 -1 12 -7
12 -6 0 -11 9 -11 20 0 11 -5 20 -11 20 -6 0 -9 6 -6 14 3 8 -1 17 -9 20 -9 3
-13 10 -10 15 4 5 2 11 -3 13 -5 1 -11 12 -13 23 -1 11 -11 28 -21 37 -10 9
-17 18 -16 20 5 7 -13 48 -22 48 -5 0 -9 6 -9 13 0 7 -11 29 -25 48 -13 20
-21 39 -18 43 4 3 1 6 -5 6 -7 0 -12 7 -12 15 0 8 -4 15 -10 15 -5 0 -10 6
-10 13 0 7 -8 22 -18 33 -10 10 -25 34 -32 52 -8 17 -18 32 -22 32 -5 0 -8 7
-8 17 0 9 -3 13 -7 10 -6 -7 -27 23 -39 56 -3 9 -11 17 -17 17 -6 0 -8 3 -5 6
4 3 -1 14 -10 24 -9 10 -26 30 -37 44 -11 15 -26 33 -32 41 -7 7 -13 17 -13
22 0 5 -9 15 -20 23 -11 8 -20 19 -20 25 0 6 -9 17 -20 25 -11 8 -20 19 -20
25 0 6 -9 17 -19 25 -11 7 -18 17 -15 22 3 4 -3 8 -12 8 -10 0 -15 2 -12 5 3
3 -13 26 -36 51 -57 62 -295 304 -301 304 -2 0 -26 21 -52 46 -26 25 -65 57
-85 71 -21 14 -38 30 -38 34 0 5 -4 9 -10 9 -9 0 -35 19 -65 48 -8 6 -16 12
-20 12 -3 0 -16 9 -28 20 -12 11 -53 42 -92 68 -38 26 -72 50 -73 55 -2 4 -8
5 -13 1 -5 -3 -9 2 -9 10 0 9 -3 15 -7 15 -18 -3 -32 2 -46 15 -7 8 -36 26
-63 41 -27 15 -67 37 -89 50 -21 13 -43 21 -47 19 -4 -3 -8 -1 -8 5 0 5 -35
26 -77 47 -43 21 -81 43 -85 49 -4 5 -8 6 -8 2 0 -4 -10 -2 -22 5 -13 7 -26
13 -30 14 -5 1 -11 3 -15 4 -5 1 -11 2 -15 1 -5 0 -8 3 -8 8 0 9 -28 22 -59
27 -7 2 -18 7 -24 13 -6 6 -19 11 -30 11 -10 0 -16 4 -13 9 4 5 -1 8 -11 7 -9
-2 -29 4 -45 12 -16 7 -34 15 -41 16 -13 3 -39 12 -72 26 -33 14 -59 22 -85
27 -13 2 -27 7 -30 11 -5 7 -14 10 -48 15 -9 1 -23 6 -29 10 -7 5 -17 5 -23 2
-5 -3 -10 -1 -10 6 0 7 -3 9 -7 6 -3 -4 -12 -2 -20 4 -7 6 -13 9 -13 6 0 -3
-31 3 -69 13 -39 10 -72 15 -75 12 -4 -3 -6 -1 -6 5 0 6 -10 10 -22 10 -42 1
-49 3 -43 13 3 6 -1 10 -9 10 -9 0 -16 8 -16 17 0 9 -3 14 -6 10 -6 -6 -34 16
-34 26 0 3 -28 33 -62 68 -35 35 -62 66 -61 70 1 3 -9 12 -22 19 -14 7 -25 17
-25 20 0 4 -28 37 -62 72 -172 177 -268 281 -268 289 0 5 -7 9 -15 9 -8 0 -15
4 -15 9 0 9 -74 91 -82 91 -2 0 -46 -45 -98 -100z"/>
<path d="M9956 3953 c-6 -14 -5 -15 5 -6 7 7 10 15 7 18 -3 3 -9 -2 -12 -12z"/>
<path d="M9866 3758 c3 -5 10 -6 15 -3 13 9 11 12 -6 12 -8 0 -12 -4 -9 -9z"/>
<path d="M9835 3640 c-3 -5 -1 -10 4 -10 6 0 11 5 11 10 0 6 -2 10 -4 10 -3 0
-8 -4 -11 -10z"/>
<path d="M573 3415 c0 -8 4 -12 9 -9 5 3 6 10 3 15 -9 13 -12 11 -12 -6z"/>
<path d="M9720 3395 c-7 -8 -17 -12 -23 -8 -6 4 -7 1 -3 -6 6 -9 13 -8 27 5
10 9 19 19 19 21 0 7 -8 2 -20 -12z"/>
<path d="M9614 3256 c1 -8 5 -18 8 -22 4 -3 5 1 4 10 -1 8 -5 18 -8 22 -4 3
-5 -1 -4 -10z"/>
<path d="M9570 3180 c0 -5 5 -10 11 -10 5 0 7 5 4 10 -3 6 -8 10 -11 10 -2 0
-4 -4 -4 -10z"/>
<path d="M816 3062 c-3 -4 4 -9 15 -9 23 -2 25 3 4 10 -8 4 -16 3 -19 -1z"/>
<path d="M9496 3042 c-3 -5 1 -9 9 -9 8 0 12 4 9 9 -3 4 -7 8 -9 8 -2 0 -6 -4
-9 -8z"/>
<path d="M9430 2976 c0 -2 8 -10 18 -17 15 -13 16 -12 3 4 -13 16 -21 21 -21
13z"/>
<path d="M875 2939 c-3 -4 2 -6 10 -5 21 3 28 13 10 13 -9 0 -18 -4 -20 -8z"/>
<path d="M975 2860 c3 -5 8 -10 11 -10 2 0 4 5 4 10 0 6 -5 10 -11 10 -5 0 -7
-4 -4 -10z"/>
<path d="M9170 2659 c0 -5 5 -7 10 -4 6 3 10 8 10 11 0 2 -4 4 -10 4 -5 0 -10
-5 -10 -11z"/>
<path d="M1155 2651 c-3 -5 -2 -12 3 -15 5 -3 9 1 9 9 0 17 -3 19 -12 6z"/>
<path d="M1195 2600 c3 -5 8 -10 11 -10 2 0 4 5 4 10 0 6 -5 10 -11 10 -5 0
-7 -4 -4 -10z"/>
<path d="M9080 2580 c-9 -6 -10 -10 -3 -10 6 0 15 5 18 10 8 12 4 12 -15 0z"/>
<path d="M9035 2520 c-3 -5 -1 -10 4 -10 6 0 11 5 11 10 0 6 -2 10 -4 10 -3 0
-8 -4 -11 -10z"/>
<path d="M1269 2483 c-13 -16 -12 -17 4 -4 9 7 17 15 17 17 0 8 -8 3 -21 -13z"/>
<path d="M1335 2491 c-3 -5 -2 -12 3 -15 5 -3 9 1 9 9 0 17 -3 19 -12 6z"/>
<path d="M9026 2482 c-2 -4 4 -8 14 -8 10 0 16 4 14 8 -3 4 -9 8 -14 8 -5 0
-11 -4 -14 -8z"/>
<path d="M1355 2460 c-3 -5 -1 -10 4 -10 6 0 11 5 11 10 0 6 -2 10 -4 10 -3 0
-8 -4 -11 -10z"/>
<path d="M8946 2442 c-3 -5 1 -9 9 -9 8 0 12 4 9 9 -3 4 -7 8 -9 8 -2 0 -6 -4
-9 -8z"/>
<path d="M8915 2371 c-3 -5 -2 -12 3 -15 5 -3 9 1 9 9 0 17 -3 19 -12 6z"/>
<path d="M1495 2300 c-3 -5 -1 -10 4 -10 6 0 11 5 11 10 0 6 -2 10 -4 10 -3 0
-8 -4 -11 -10z"/>
<path d="M8840 2286 c0 -2 8 -10 18 -17 15 -13 16 -12 3 4 -13 16 -21 21 -21
13z"/>
<path d="M1600 2246 c0 -2 8 -10 18 -17 15 -13 16 -12 3 4 -13 16 -21 21 -21
13z"/>
<path d="M1576 2218 c3 -5 10 -6 15 -3 13 9 11 12 -6 12 -8 0 -12 -4 -9 -9z"/>
<path d="M1695 2140 c3 -5 8 -10 11 -10 2 0 4 5 4 10 0 6 -5 10 -11 10 -5 0
-7 -4 -4 -10z"/>
<path d="M1855 2020 c3 -5 8 -10 11 -10 2 0 4 5 4 10 0 6 -5 10 -11 10 -5 0
-7 -4 -4 -10z"/>
<path d="M1896 2007 c3 -10 9 -15 12 -12 3 3 0 11 -7 18 -10 9 -11 8 -5 -6z"/>
<path d="M8410 1980 c0 -5 5 -10 11 -10 5 0 7 5 4 10 -3 6 -8 10 -11 10 -2 0
-4 -4 -4 -10z"/>
<path d="M8355 1971 c-3 -5 -2 -12 3 -15 5 -3 9 1 9 9 0 17 -3 19 -12 6z"/>
<path d="M1936 1958 c3 -5 10 -6 15 -3 13 9 11 12 -6 12 -8 0 -12 -4 -9 -9z"/>
<path d="M2015 1930 c-3 -5 -2 -18 4 -27 7 -14 9 -12 8 10 -2 30 -3 31 -12 17z"/>
<path d="M8297 1915 c-4 -8 -3 -16 1 -19 4 -3 9 4 9 15 2 23 -3 25 -10 4z"/>
<path d="M4360 1885 c0 -2 6 -8 13 -14 10 -8 14 -7 14 2 0 8 -6 14 -14 14 -7
0 -13 -1 -13 -2z"/>
<path d="M8220 1886 c0 -2 8 -10 18 -17 15 -13 16 -12 3 4 -13 16 -21 21 -21
13z"/>
<path d="M5876 1862 c-3 -5 1 -9 9 -9 8 0 12 4 9 9 -3 4 -7 8 -9 8 -2 0 -6 -4
-9 -8z"/>
<path d="M2126 1838 c3 -5 10 -6 15 -3 13 9 11 12 -6 12 -8 0 -12 -4 -9 -9z"/>
<path d="M2159 1833 c-13 -16 -12 -17 4 -4 9 7 17 15 17 17 0 8 -8 3 -21 -13z"/>
<path d="M2200 1815 c-7 -9 -11 -17 -9 -20 3 -2 10 5 17 15 14 24 10 26 -8 5z"/>
<path d="M5910 1826 c0 -2 7 -7 16 -10 8 -3 12 -2 9 4 -6 10 -25 14 -25 6z"/>
<path d="M2225 1800 c-3 -6 1 -7 9 -4 18 7 21 14 7 14 -6 0 -13 -4 -16 -10z"/>
<path d="M4478 1803 c7 -3 16 -2 19 1 4 3 -2 6 -13 5 -11 0 -14 -3 -6 -6z"/>
<path d="M8090 1799 c0 -5 5 -7 10 -4 6 3 10 8 10 11 0 2 -4 4 -10 4 -5 0 -10
-5 -10 -11z"/>
<path d="M5913 1785 c0 -8 4 -12 9 -9 5 3 6 10 3 15 -9 13 -12 11 -12 -6z"/>
<path d="M4433 1755 c0 -8 4 -12 9 -9 4 3 8 9 8 15 0 5 -4 9 -8 9 -5 0 -9 -7
-9 -15z"/>
<path d="M5753 1755 c0 -8 4 -12 9 -9 4 3 8 9 8 15 0 5 -4 9 -8 9 -5 0 -9 -7
-9 -15z"/>
<path d="M2255 1740 c-3 -5 -1 -10 4 -10 6 0 11 5 11 10 0 6 -2 10 -4 10 -3 0
-8 -4 -11 -10z"/>
<path d="M2355 1730 c10 -11 20 -20 23 -20 3 0 -3 9 -13 20 -10 11 -20 20 -23
20 -3 0 3 -9 13 -20z"/>
<path d="M5721 1716 c-9 -11 -9 -16 1 -22 7 -4 10 -4 6 1 -4 4 -3 14 3 22 6 7
9 13 6 13 -2 0 -10 -6 -16 -14z"/>
<path d="M7887 1719 c7 -7 15 -10 18 -7 3 3 -2 9 -12 12 -14 6 -15 5 -6 -5z"/>
<path d="M7828 1683 c6 -2 9 -10 6 -15 -4 -7 -2 -8 5 -4 13 9 5 26 -12 25 -9
0 -8 -2 1 -6z"/>
<path d="M7875 1680 c-3 -5 -1 -10 4 -10 6 0 11 5 11 10 0 6 -2 10 -4 10 -3 0
-8 -4 -11 -10z"/>
<path d="M7910 1679 c0 -5 5 -7 10 -4 6 3 10 8 10 11 0 2 -4 4 -10 4 -5 0 -10
-5 -10 -11z"/>
<path d="M4650 1619 c0 -5 5 -7 10 -4 6 3 10 8 10 11 0 2 -4 4 -10 4 -5 0 -10
-5 -10 -11z"/>
<path d="M7674 1609 c-3 -6 -2 -15 3 -20 5 -5 9 -1 9 11 0 23 -2 24 -12 9z"/>
<path d="M7616 1575 c-9 -26 -7 -32 5 -12 6 10 9 21 6 23 -2 3 -7 -2 -11 -11z"/>
<path d="M7730 1561 c0 -6 4 -13 10 -16 6 -3 7 1 4 9 -7 18 -14 21 -14 7z"/>
<path d="M7650 1521 c0 -6 4 -13 10 -16 6 -3 7 1 4 9 -7 18 -14 21 -14 7z"/>
<path d="M2775 1500 c3 -5 8 -10 11 -10 2 0 4 5 4 10 0 6 -5 10 -11 10 -5 0
-7 -4 -4 -10z"/>
<path d="M7433 1495 c0 -8 4 -12 9 -9 5 3 6 10 3 15 -9 13 -12 11 -12 -6z"/>
<path d="M5475 1491 c-3 -5 -2 -12 3 -15 5 -3 9 1 9 9 0 17 -3 19 -12 6z"/>
<path d="M2815 1480 c-3 -5 -1 -10 4 -10 6 0 11 5 11 10 0 6 -2 10 -4 10 -3 0
-8 -4 -11 -10z"/>
<path d="M2866 1478 c3 -4 9 -8 15 -8 5 0 9 4 9 8 0 5 -7 9 -15 9 -8 0 -12 -4
-9 -9z"/>
<path d="M4790 1476 c0 -2 8 -10 18 -17 15 -13 16 -12 3 4 -13 16 -21 21 -21
13z"/>
<path d="M7387 1459 c7 -7 15 -10 18 -7 3 3 -2 9 -12 12 -14 6 -15 5 -6 -5z"/>
<path d="M4875 1449 c-4 -6 -5 -12 -2 -15 2 -3 7 2 10 11 7 17 1 20 -8 4z"/>
<path d="M2870 1439 c0 -5 5 -7 10 -4 6 3 10 8 10 11 0 2 -4 4 -10 4 -5 0 -10
-5 -10 -11z"/>
<path d="M7198 1423 c7 -3 16 -2 19 1 4 3 -2 6 -13 5 -11 0 -14 -3 -6 -6z"/>
<path d="M7330 1420 c0 -5 5 -10 11 -10 5 0 7 5 4 10 -3 6 -8 10 -11 10 -2 0
-4 -4 -4 -10z"/>
<path d="M7233 1405 c0 -8 4 -12 9 -9 5 3 6 10 3 15 -9 13 -12 11 -12 -6z"/>
<path d="M3096 1382 c-3 -5 1 -9 9 -9 8 0 12 4 9 9 -3 4 -7 8 -9 8 -2 0 -6 -4
-9 -8z"/>
<path d="M3136 1378 c3 -5 10 -6 15 -3 13 9 11 12 -6 12 -8 0 -12 -4 -9 -9z"/>
<path d="M3229 1363 c-13 -16 -12 -17 4 -4 16 13 21 21 13 21 -2 0 -10 -8 -17
-17z"/>
<path d="M7187 1359 c7 -7 15 -10 18 -7 3 3 -2 9 -12 12 -14 6 -15 5 -6 -5z"/>
<path d="M3175 1340 c-3 -5 -1 -10 4 -10 6 0 11 5 11 10 0 6 -2 10 -4 10 -3 0
-8 -4 -11 -10z"/>
<path d="M7135 1340 c-3 -5 -1 -10 4 -10 6 0 11 5 11 10 0 6 -2 10 -4 10 -3 0
-8 -4 -11 -10z"/>
<path d="M3290 1305 c0 -7 30 -13 34 -7 3 4 -4 9 -15 9 -10 1 -19 0 -19 -2z"/>
<path d="M3534 1280 c0 -13 4 -16 10 -10 7 7 7 13 0 20 -6 6 -10 3 -10 -10z"/>
<path d="M3445 1280 c-3 -6 1 -7 9 -4 18 7 21 14 7 14 -6 0 -13 -4 -16 -10z"/>
<path d="M3610 1281 c0 -6 4 -13 10 -16 6 -3 7 1 4 9 -7 18 -14 21 -14 7z"/>
<path d="M6747 1279 c7 -7 15 -10 18 -7 3 3 -2 9 -12 12 -14 6 -15 5 -6 -5z"/>
<path d="M3669 1258 c7 -9 9 -23 5 -30 -6 -10 -4 -11 7 0 11 10 10 15 -6 30
-17 15 -18 15 -6 0z"/>
<path d="M6790 1259 c0 -5 5 -7 10 -4 6 3 10 8 10 11 0 2 -4 4 -10 4 -5 0 -10
-5 -10 -11z"/>
<path d="M6890 1265 c0 -7 30 -13 34 -7 3 4 -4 9 -15 9 -10 1 -19 0 -19 -2z"/>
<path d="M3756 1247 c3 -10 9 -15 12 -12 3 3 0 11 -7 18 -10 9 -11 8 -5 -6z"/>
<path d="M3793 1245 c0 -8 4 -12 9 -9 5 3 6 10 3 15 -9 13 -12 11 -12 -6z"/>
<path d="M6755 1249 c-4 -6 -5 -12 -2 -15 2 -3 7 2 10 11 7 17 1 20 -8 4z"/>
<path d="M3410 1241 c0 -6 4 -13 10 -16 6 -3 7 1 4 9 -7 18 -14 21 -14 7z"/>
<path d="M6535 1229 c-4 -6 -5 -12 -2 -15 2 -3 7 2 10 11 7 17 1 20 -8 4z"/>
<path d="M5096 1222 c-3 -5 1 -9 9 -9 8 0 12 4 9 9 -3 4 -7 8 -9 8 -2 0 -6 -4
-9 -8z"/>
<path d="M5135 1220 c-3 -5 -1 -10 4 -10 6 0 11 5 11 10 0 6 -2 10 -4 10 -3 0
-8 -4 -11 -10z"/>
<path d="M3896 1207 c3 -10 9 -15 12 -12 3 3 0 11 -7 18 -10 9 -11 8 -5 -6z"/>
<path d="M3956 1207 c3 -10 9 -15 12 -12 3 3 0 11 -7 18 -10 9 -11 8 -5 -6z"/>
<path d="M4050 1201 c0 -6 4 -13 10 -16 6 -3 7 1 4 9 -7 18 -14 21 -14 7z"/>
<path d="M6494 1198 c-4 -7 -4 -10 1 -6 4 4 15 2 24 -5 14 -11 14 -10 2 6 -16
20 -18 21 -27 5z"/>
<path d="M6570 1179 c0 -5 5 -7 10 -4 6 3 10 8 10 11 0 2 -4 4 -10 4 -5 0 -10
-5 -10 -11z"/>
<path d="M4115 1170 c-4 -6 -11 -7 -17 -4 -7 4 -8 2 -4 -5 6 -9 11 -9 22 0 14
11 18 19 10 19 -3 0 -8 -5 -11 -10z"/>
<path d="M6296 1153 c-6 -14 -5 -15 5 -6 7 7 10 15 7 18 -3 3 -9 -2 -12 -12z"/>
<path d="M6187 1147 c-3 -8 1 -14 8 -14 7 0 11 6 8 14 -3 7 -6 13 -8 13 -2 0
-5 -6 -8 -13z"/>
<path d="M6226 1142 c-3 -5 1 -9 9 -9 8 0 15 4 15 9 0 4 -4 8 -9 8 -6 0 -12
-4 -15 -8z"/>
<path d="M6455 1140 c-3 -5 -1 -10 4 -10 6 0 11 5 11 10 0 6 -2 10 -4 10 -3 0
-8 -4 -11 -10z"/>
<path d="M4233 1125 c0 -8 4 -12 9 -9 5 3 6 10 3 15 -9 13 -12 11 -12 -6z"/>
<path d="M6387 1119 c7 -7 15 -10 18 -7 3 3 -2 9 -12 12 -14 6 -15 5 -6 -5z"/>
<path d="M6015 1100 c3 -5 8 -10 11 -10 2 0 4 5 4 10 0 6 -5 10 -11 10 -5 0
-7 -4 -4 -10z"/>
<path d="M6053 1063 c4 -3 1 -13 -6 -22 -11 -14 -10 -14 5 -2 16 12 16 31 1
31 -4 0 -3 -3 0 -7z"/>
</g>
</svg>
