<svg xmlns="http://www.w3.org/2000/svg" xmlns:xlink="http://www.w3.org/1999/xlink" width="1280" zoomAndPan="magnify" viewBox="0 0 960 540.000001" height="720" preserveAspectRatio="xMidYMid meet" version="1.0"><defs><filter x="0%" y="0%" width="100%" height="100%" id="013382de4f"><feColorMatrix values="0 0 0 0 1 0 0 0 0 1 0 0 0 0 1 0 0 0 1 0" color-interpolation-filters="sRGB"/></filter><clipPath id="a37cfd057f"><path d="M 0.886719 0 L 959.113281 0 L 959.113281 539 L 0.886719 539 Z M 0.886719 0 " clip-rule="nonzero"/></clipPath><clipPath id="fbf6d24ca0"><path d="M 0.886719 0 L 204 0 L 204 194 L 0.886719 194 Z M 0.886719 0 " clip-rule="nonzero"/></clipPath><mask id="3c940e4f59"><g filter="url(#013382de4f)"><rect x="-96" width="1152" fill="#000000" y="-54" height="648.000001" fill-opacity="0.6"/></g></mask><clipPath id="44a4307958"><path d="M 0.886719 0 L 203.316406 0 L 203.316406 193.101562 L 0.886719 193.101562 Z M 0.886719 0 " clip-rule="nonzero"/></clipPath><clipPath id="a2c57a44e7"><rect x="0" width="204" y="0" height="194"/></clipPath><clipPath id="0fe869ab16"><path d="M 769.460938 370.601562 L 959.113281 370.601562 L 959.113281 539 L 769.460938 539 Z M 769.460938 370.601562 " clip-rule="nonzero"/></clipPath><clipPath id="16a6597287"><path d="M 902.871094 370.601562 C 829.1875 370.601562 769.460938 430.332031 769.460938 504.011719 C 769.460938 577.691406 829.1875 637.421875 902.871094 637.421875 C 976.550781 637.421875 1036.28125 577.691406 1036.28125 504.011719 C 1036.28125 430.332031 976.550781 370.601562 902.871094 370.601562 " clip-rule="nonzero"/></clipPath><clipPath id="6bff6ab622"><path d="M 620.753906 2.679688 L 887.574219 2.679688 L 887.574219 269.5 L 620.753906 269.5 Z M 620.753906 2.679688 " clip-rule="nonzero"/></clipPath><clipPath id="4ceedac086"><path d="M 754.164062 2.679688 C 680.484375 2.679688 620.753906 62.410156 620.753906 136.089844 C 620.753906 209.769531 680.484375 269.5 754.164062 269.5 C 827.84375 269.5 887.574219 209.769531 887.574219 136.089844 C 887.574219 62.410156 827.84375 2.679688 754.164062 2.679688 " clip-rule="nonzero"/></clipPath><clipPath id="06d8e2f8c6"><path d="M 777.90625 12.074219 L 959.113281 12.074219 L 959.113281 193.28125 L 777.90625 193.28125 Z M 777.90625 12.074219 " clip-rule="nonzero"/></clipPath><clipPath id="f30665b1d6"><path d="M 868.511719 12.074219 C 818.472656 12.074219 777.90625 52.640625 777.90625 102.679688 C 777.90625 152.71875 818.472656 193.28125 868.511719 193.28125 C 918.546875 193.28125 959.113281 152.71875 959.113281 102.679688 C 959.113281 52.640625 918.546875 12.074219 868.511719 12.074219 " clip-rule="nonzero"/></clipPath><mask id="e940891a90"><g filter="url(#013382de4f)"><rect x="-96" width="1152" fill="#000000" y="-54" height="648.000001" fill-opacity="0.6"/></g></mask><clipPath id="77bf92b8c2"><path d="M 0.164062 0.78125 L 171.597656 0.78125 L 171.597656 172.214844 L 0.164062 172.214844 Z M 0.164062 0.78125 " clip-rule="nonzero"/></clipPath><clipPath id="b3af2a938b"><rect x="0" width="172" y="0" height="173"/></clipPath></defs><g clip-path="url(#a37cfd057f)"><path fill="#ffffff" d="M 0.886719 0 L 959.113281 0 L 959.113281 546.488281 L 0.886719 546.488281 Z M 0.886719 0 " fill-opacity="1" fill-rule="nonzero"/><path fill="#ffffff" d="M 0.886719 0 L 959.113281 0 L 959.113281 539 L 0.886719 539 Z M 0.886719 0 " fill-opacity="1" fill-rule="nonzero"/><path fill="#0097b2" d="M 0.886719 0 L 959.113281 0 L 959.113281 539 L 0.886719 539 Z M 0.886719 0 " fill-opacity="1" fill-rule="nonzero"/></g><g clip-path="url(#fbf6d24ca0)"><g mask="url(#3c940e4f59)"><g transform="matrix(1, 0, 0, 1, 0.000000000000000222, 0.000000000000017795)"><g clip-path="url(#a2c57a44e7)"><g clip-path="url(#44a4307958)"><path fill="#ffffff" d="M 28.742188 -49.636719 C 27.878906 -49.277344 27.03125 -48.898438 26.179688 -48.523438 L 192.660156 117.957031 C 193.035156 117.105469 193.414062 116.253906 193.773438 115.394531 Z M 5.015625 -36.625 C 4.296875 -36.121094 3.578125 -35.613281 2.867188 -35.097656 L 179.234375 141.269531 C 179.75 140.558594 180.257812 139.839844 180.761719 139.121094 Z M 16.335938 -43.675781 C 15.546875 -43.242188 14.777344 -42.78125 14 -42.335938 L 186.46875 130.132812 C 186.917969 129.359375 187.378906 128.589844 187.8125 127.800781 Z M 42.375 -54.375 C 41.421875 -54.101562 40.457031 -53.851562 39.515625 -53.558594 L 197.695312 104.621094 C 197.988281 103.679688 198.238281 102.714844 198.507812 101.761719 Z M 93.726562 -58.128906 C 92.335938 -58.3125 90.949219 -58.496094 89.546875 -58.636719 L 202.769531 54.589844 C 202.632812 53.1875 202.449219 51.800781 202.265625 50.410156 Z M 182.675781 -2.242188 C 178.332031 -8.847656 173.386719 -15.011719 167.917969 -20.675781 L 164.8125 -23.777344 C 159.148438 -29.25 152.984375 -34.199219 146.378906 -38.539062 Z M 74.304688 -59.179688 C 73.109375 -59.152344 71.910156 -59.148438 70.722656 -59.089844 L 203.226562 73.414062 C 203.285156 72.226562 203.289062 71.027344 203.316406 69.832031 Z M 57.40625 -57.710938 C 56.359375 -57.546875 55.324219 -57.34375 54.289062 -57.15625 L 201.289062 89.847656 C 201.480469 88.808594 201.683594 87.777344 201.847656 86.730469 Z M -5.320312 -28.59375 C -5.976562 -28.023438 -6.644531 -27.46875 -7.289062 -26.886719 L 171.023438 151.425781 C 171.605469 150.777344 172.160156 150.113281 172.730469 149.457031 Z M -34.695312 125.71875 C -33.128906 128.703125 -31.441406 131.609375 -29.648438 134.441406 L 9.691406 173.785156 C 12.527344 175.578125 15.433594 177.265625 18.417969 178.832031 Z M -48.910156 74.769531 C -48.832031 76.097656 -48.730469 77.425781 -48.609375 78.742188 L 65.390625 192.746094 C 66.710938 192.867188 68.039062 192.964844 69.367188 193.046875 Z M 198.378906 31.828125 C 197.855469 30.023438 197.292969 28.238281 196.691406 26.46875 L 117.667969 -52.554688 C 115.894531 -53.15625 114.109375 -53.71875 112.308594 -54.242188 Z M -45.714844 96.332031 C -45.316406 98.003906 -44.886719 99.65625 -44.425781 101.296875 L 42.839844 188.5625 C 44.480469 189.023438 46.132812 189.453125 47.800781 189.851562 Z M -48.707031 56.601562 C -48.800781 57.738281 -48.902344 58.871094 -48.964844 60.015625 L 84.117188 193.101562 C 85.265625 193.039062 86.398438 192.9375 87.535156 192.84375 Z M -46.371094 40.570312 C -46.589844 41.589844 -46.78125 42.617188 -46.972656 43.640625 L 100.492188 191.109375 C 101.519531 190.917969 102.546875 190.726562 103.566406 190.507812 Z M -23.164062 -9.695312 C -23.695312 -9.003906 -24.222656 -8.304688 -24.742188 -7.601562 L 151.738281 168.878906 C 152.441406 168.359375 153.140625 167.832031 153.832031 167.300781 Z M -30.652344 1.179688 C -31.121094 1.945312 -31.558594 2.726562 -32.011719 3.5 L 140.636719 176.144531 C 141.410156 175.695312 142.191406 175.257812 142.957031 174.789062 Z M -42.378906 26.191406 C -42.691406 27.105469 -43.019531 28.011719 -43.308594 28.9375 L 115.199219 187.445312 C 116.125 187.152344 117.03125 186.828125 117.945312 186.515625 Z M -37.09375 13.109375 C -37.488281 13.945312 -37.859375 14.792969 -38.238281 15.640625 L 128.496094 182.371094 C 129.339844 181.996094 130.191406 181.625 131.023438 181.230469 Z M 163.75 158.847656 C 163.121094 159.441406 162.503906 160.050781 161.863281 160.632812 L -16.496094 -17.726562 C -15.914062 -18.367188 -15.304688 -18.984375 -14.710938 -19.613281 L 163.75 158.847656 " fill-opacity="1" fill-rule="nonzero"/></g></g></g></g></g><g clip-path="url(#0fe869ab16)"><g clip-path="url(#16a6597287)"><path fill="#0cc0df" d="M 769.460938 370.601562 L 1036.28125 370.601562 L 1036.28125 637.421875 L 769.460938 637.421875 Z M 769.460938 370.601562 " fill-opacity="1" fill-rule="nonzero"/></g></g><g clip-path="url(#6bff6ab622)"><g clip-path="url(#4ceedac086)"><path fill="#0cc0df" d="M 620.753906 2.679688 L 887.574219 2.679688 L 887.574219 269.5 L 620.753906 269.5 Z M 620.753906 2.679688 " fill-opacity="1" fill-rule="nonzero"/></g></g><g clip-path="url(#06d8e2f8c6)"><g clip-path="url(#f30665b1d6)"><path fill="#5ce1e6" d="M 777.90625 12.074219 L 959.113281 12.074219 L 959.113281 193.28125 L 777.90625 193.28125 Z M 777.90625 12.074219 " fill-opacity="1" fill-rule="nonzero"/></g></g><g mask="url(#e940891a90)"><g transform="matrix(1, 0, 0, 1, 754, 332)"><g clip-path="url(#b3af2a938b)"><g clip-path="url(#77bf92b8c2)"><path fill="#ffffff" d="M 52.96875 7.265625 C 52.382812 7.507812 51.808594 7.765625 51.226562 8.019531 L 164.355469 121.148438 C 164.613281 120.570312 164.867188 119.992188 165.113281 119.40625 Z M 36.847656 16.105469 C 36.355469 16.449219 35.871094 16.792969 35.386719 17.144531 L 155.234375 136.988281 C 155.582031 136.507812 155.929688 136.019531 156.269531 135.53125 Z M 44.539062 11.316406 C 44.003906 11.609375 43.480469 11.921875 42.953125 12.226562 L 160.148438 129.425781 C 160.453125 128.898438 160.765625 128.375 161.0625 127.839844 Z M 62.230469 4.046875 C 61.585938 4.230469 60.929688 4.398438 60.289062 4.601562 L 167.777344 112.089844 C 167.976562 111.445312 168.144531 110.792969 168.332031 110.144531 Z M 97.128906 1.496094 C 96.183594 1.371094 95.238281 1.242188 94.285156 1.152344 L 171.226562 78.089844 C 171.132812 77.136719 171.007812 76.195312 170.882812 75.25 Z M 157.570312 39.472656 C 154.621094 34.984375 151.257812 30.792969 147.542969 26.945312 L 145.433594 24.835938 C 141.585938 21.117188 137.394531 17.757812 132.90625 14.804688 Z M 83.929688 0.78125 C 83.117188 0.796875 82.300781 0.800781 81.496094 0.84375 L 171.535156 90.882812 C 171.574219 90.074219 171.578125 89.257812 171.597656 88.445312 Z M 72.445312 1.777344 C 71.734375 1.890625 71.03125 2.027344 70.328125 2.15625 L 170.21875 102.050781 C 170.347656 101.34375 170.488281 100.640625 170.597656 99.929688 Z M 29.824219 21.566406 C 29.375 21.953125 28.921875 22.328125 28.484375 22.722656 L 149.652344 143.890625 C 150.046875 143.453125 150.425781 143 150.8125 142.554688 Z M 9.859375 126.425781 C 10.925781 128.449219 12.074219 130.425781 13.292969 132.351562 L 40.023438 159.085938 C 41.949219 160.304688 43.925781 161.449219 45.953125 162.515625 Z M 0.203125 91.800781 C 0.257812 92.707031 0.324219 93.605469 0.40625 94.503906 L 77.875 171.96875 C 78.769531 172.050781 79.671875 172.121094 80.574219 172.175781 Z M 168.242188 62.625 C 167.886719 61.398438 167.503906 60.183594 167.097656 58.980469 L 113.394531 5.28125 C 112.191406 4.875 110.980469 4.492188 109.753906 4.136719 Z M 2.375 106.457031 C 2.644531 107.589844 2.9375 108.714844 3.25 109.828125 L 62.546875 169.125 C 63.664062 169.441406 64.789062 169.734375 65.921875 170.003906 Z M 0.339844 79.457031 C 0.277344 80.230469 0.207031 81 0.164062 81.777344 L 90.597656 172.214844 C 91.378906 172.171875 92.148438 172.101562 92.917969 172.035156 Z M 1.925781 68.5625 C 1.78125 69.253906 1.648438 69.953125 1.519531 70.652344 L 101.726562 170.859375 C 102.425781 170.726562 103.121094 170.597656 103.816406 170.449219 Z M 17.699219 34.40625 C 17.335938 34.878906 16.976562 35.351562 16.625 35.828125 L 136.546875 155.75 C 137.027344 155.398438 137.5 155.039062 137.972656 154.679688 Z M 12.609375 41.796875 C 12.292969 42.316406 11.992188 42.847656 11.6875 43.371094 L 129.003906 160.691406 C 129.53125 160.382812 130.0625 160.085938 130.578125 159.769531 Z M 4.640625 58.792969 C 4.425781 59.414062 4.207031 60.03125 4.007812 60.65625 L 111.71875 168.367188 C 112.347656 168.171875 112.964844 167.949219 113.585938 167.738281 Z M 8.234375 49.902344 C 7.964844 50.472656 7.710938 51.046875 7.457031 51.625 L 120.753906 164.921875 C 121.328125 164.664062 121.90625 164.414062 122.472656 164.144531 Z M 144.710938 148.933594 C 144.28125 149.339844 143.863281 149.753906 143.429688 150.148438 L 22.226562 28.949219 C 22.625 28.511719 23.039062 28.09375 23.441406 27.667969 L 144.710938 148.933594 " fill-opacity="1" fill-rule="nonzero"/></g></g></g></g></svg>