<svg xmlns="http://www.w3.org/2000/svg" xmlns:xlink="http://www.w3.org/1999/xlink" width="1080" zoomAndPan="magnify" viewBox="0 0 810 1439.999935" height="1920" preserveAspectRatio="xMidYMid meet" version="1.0"><defs><filter x="0%" y="0%" width="100%" height="100%" id="14425ffbcf"><feColorMatrix values="0 0 0 0 1 0 0 0 0 1 0 0 0 0 1 0 0 0 1 0" color-interpolation-filters="sRGB"/></filter><mask id="bba97301bd"><g filter="url(#14425ffbcf)"><rect x="-81" width="972" fill="#000000" y="-143.999994" height="1727.999922" fill-opacity="0.6"/></g></mask><clipPath id="2d52f20fa7"><path d="M 1.082031 0.929688 L 214.832031 0.929688 L 214.832031 214.679688 L 1.082031 214.679688 Z M 1.082031 0.929688 " clip-rule="nonzero"/></clipPath><clipPath id="513ae4c24f"><rect x="0" width="216" y="0" height="215"/></clipPath><clipPath id="a00d20f606"><path d="M 649.683594 805.460938 L 810 805.460938 L 810 1031.007812 L 649.683594 1031.007812 Z M 649.683594 805.460938 " clip-rule="nonzero"/></clipPath><clipPath id="63c5b8c215"><path d="M 762.457031 805.460938 C 700.175781 805.460938 649.683594 855.953125 649.683594 918.234375 C 649.683594 980.519531 700.175781 1031.007812 762.457031 1031.007812 C 824.742188 1031.007812 875.230469 980.519531 875.230469 918.234375 C 875.230469 855.953125 824.742188 805.460938 762.457031 805.460938 " clip-rule="nonzero"/></clipPath><clipPath id="209d7cc036"><path d="M 0 620.316406 L 189.363281 620.316406 L 189.363281 845.863281 L 0 845.863281 Z M 0 620.316406 " clip-rule="nonzero"/></clipPath><clipPath id="5b2e94049d"><path d="M 76.585938 620.316406 C 14.304688 620.316406 -36.1875 670.804688 -36.1875 733.089844 C -36.1875 795.371094 14.304688 845.863281 76.585938 845.863281 C 138.871094 845.863281 189.363281 795.371094 189.363281 733.089844 C 189.363281 670.804688 138.871094 620.316406 76.585938 620.316406 " clip-rule="nonzero"/></clipPath><clipPath id="bfd5641484"><path d="M 112.773438 733.089844 L 265.949219 733.089844 L 265.949219 886.265625 L 112.773438 886.265625 Z M 112.773438 733.089844 " clip-rule="nonzero"/></clipPath><clipPath id="06062dd354"><path d="M 189.363281 733.089844 C 147.0625 733.089844 112.773438 767.378906 112.773438 809.675781 C 112.773438 851.976562 147.0625 886.265625 189.363281 886.265625 C 231.660156 886.265625 265.949219 851.976562 265.949219 809.675781 C 265.949219 767.378906 231.660156 733.089844 189.363281 733.089844 " clip-rule="nonzero"/></clipPath><mask id="3b05616bd0"><g filter="url(#14425ffbcf)"><rect x="-81" width="972" fill="#000000" y="-143.999994" height="1727.999922" fill-opacity="0.6"/></g></mask><clipPath id="5302c6fa0a"><path d="M 0.753906 0.492188 L 145.503906 0.492188 L 145.503906 145.242188 L 0.753906 145.242188 Z M 0.753906 0.492188 " clip-rule="nonzero"/></clipPath><clipPath id="3e7b0c065e"><rect x="0" width="146" y="0" height="146"/></clipPath></defs><rect x="-81" width="972" fill="#ffffff" y="-143.999994" height="1727.999922" fill-opacity="1"/><rect x="-81" width="972" fill="#ffffff" y="-143.999994" height="1727.999922" fill-opacity="1"/><rect x="-81" width="972" fill="#0097b2" y="-143.999994" height="1727.999922" fill-opacity="1"/><g mask="url(#bba97301bd)"><g transform="matrix(1, 0, 0, 1, 36, 129)"><g clip-path="url(#513ae4c24f)"><g clip-path="url(#2d52f20fa7)"><path fill="#ffffff" d="M 66.921875 9.015625 C 66.191406 9.316406 65.472656 9.640625 64.75 9.957031 L 205.804688 151.007812 C 206.121094 150.289062 206.441406 149.570312 206.746094 148.839844 Z M 46.820312 20.039062 C 46.207031 20.464844 45.601562 20.894531 45 21.332031 L 194.429688 170.761719 C 194.867188 170.160156 195.296875 169.550781 195.722656 168.941406 Z M 56.410156 14.066406 C 55.742188 14.433594 55.089844 14.820312 54.433594 15.203125 L 200.558594 161.328125 C 200.9375 160.671875 201.328125 160.019531 201.695312 159.351562 Z M 78.46875 5 C 77.664062 5.230469 76.847656 5.441406 76.046875 5.691406 L 210.070312 139.710938 C 210.316406 138.914062 210.527344 138.097656 210.757812 137.289062 Z M 121.980469 1.820312 C 120.800781 1.664062 119.625 1.507812 118.4375 1.390625 L 214.367188 97.324219 C 214.253906 96.132812 214.09375 94.957031 213.941406 93.78125 Z M 197.34375 49.171875 C 193.664062 43.574219 189.472656 38.351562 184.839844 33.550781 L 182.207031 30.921875 C 177.410156 26.289062 172.1875 22.09375 166.589844 18.417969 Z M 105.523438 0.929688 C 104.511719 0.949219 103.496094 0.957031 102.488281 1.003906 L 214.753906 113.269531 C 214.804688 112.265625 214.808594 111.25 214.832031 110.234375 Z M 91.207031 2.171875 C 90.320312 2.3125 89.445312 2.484375 88.566406 2.644531 L 213.113281 127.195312 C 213.277344 126.316406 213.449219 125.441406 213.585938 124.554688 Z M 38.0625 26.84375 C 37.503906 27.324219 36.941406 27.796875 36.394531 28.289062 L 187.472656 179.367188 C 187.960938 178.820312 188.433594 178.257812 188.914062 177.699219 Z M 13.171875 157.589844 C 14.5 160.113281 15.929688 162.578125 17.449219 164.980469 L 50.78125 198.308594 C 53.183594 199.832031 55.644531 201.257812 58.171875 202.589844 Z M 1.128906 114.417969 C 1.195312 115.546875 1.28125 116.667969 1.382812 117.785156 L 97.972656 214.375 C 99.089844 214.476562 100.214844 214.5625 101.34375 214.632812 Z M 210.648438 78.039062 C 210.203125 76.507812 209.726562 74.996094 209.21875 73.496094 L 142.261719 6.539062 C 140.761719 6.03125 139.25 5.554688 137.722656 5.113281 Z M 3.835938 132.691406 C 4.171875 134.105469 4.539062 135.503906 4.929688 136.894531 L 78.863281 210.832031 C 80.253906 211.222656 81.65625 211.585938 83.070312 211.921875 Z M 1.300781 99.027344 C 1.222656 99.992188 1.132812 100.949219 1.082031 101.917969 L 113.839844 214.679688 C 114.808594 214.625 115.769531 214.539062 116.734375 214.457031 Z M 3.28125 85.441406 C 3.097656 86.304688 2.933594 87.175781 2.769531 88.046875 L 127.714844 212.988281 C 128.585938 212.828125 129.453125 212.664062 130.316406 212.480469 Z M 22.945312 42.855469 C 22.492188 43.441406 22.046875 44.03125 21.605469 44.628906 L 171.128906 194.152344 C 171.726562 193.714844 172.316406 193.265625 172.90625 192.816406 Z M 16.597656 52.070312 C 16.203125 52.71875 15.832031 53.378906 15.449219 54.035156 L 161.726562 200.3125 C 162.382812 199.929688 163.042969 199.558594 163.691406 199.164062 Z M 6.660156 73.261719 C 6.394531 74.035156 6.121094 74.804688 5.875 75.585938 L 140.175781 209.886719 C 140.957031 209.640625 141.726562 209.363281 142.5 209.097656 Z M 11.140625 62.179688 C 10.804688 62.886719 10.492188 63.605469 10.171875 64.320312 L 151.4375 205.585938 C 152.15625 205.265625 152.875 204.953125 153.582031 204.617188 Z M 181.308594 185.65625 C 180.773438 186.160156 180.253906 186.675781 179.707031 187.167969 L 28.589844 36.050781 C 29.085938 35.507812 29.601562 34.984375 30.105469 34.453125 L 181.308594 185.65625 " fill-opacity="1" fill-rule="nonzero"/></g></g></g></g><g clip-path="url(#a00d20f606)"><g clip-path="url(#63c5b8c215)"><path fill="#0cc0df" d="M 649.683594 805.460938 L 875.230469 805.460938 L 875.230469 1031.007812 L 649.683594 1031.007812 Z M 649.683594 805.460938 " fill-opacity="1" fill-rule="nonzero"/></g></g><g clip-path="url(#209d7cc036)"><g clip-path="url(#5b2e94049d)"><path fill="#0cc0df" d="M -36.1875 620.316406 L 189.363281 620.316406 L 189.363281 845.863281 L -36.1875 845.863281 Z M -36.1875 620.316406 " fill-opacity="1" fill-rule="nonzero"/></g></g><g clip-path="url(#bfd5641484)"><g clip-path="url(#06062dd354)"><path fill="#5ce1e6" d="M 112.773438 733.089844 L 265.949219 733.089844 L 265.949219 886.265625 L 112.773438 886.265625 Z M 112.773438 733.089844 " fill-opacity="1" fill-rule="nonzero"/></g></g><g mask="url(#3b05616bd0)"><g transform="matrix(1, 0, 0, 1, 636, 773)"><g clip-path="url(#3e7b0c065e)"><g clip-path="url(#5302c6fa0a)"><path fill="#ffffff" d="M 45.339844 5.964844 C 44.847656 6.171875 44.359375 6.390625 43.871094 6.605469 L 139.390625 102.125 C 139.605469 101.636719 139.824219 101.148438 140.027344 100.65625 Z M 31.726562 13.433594 C 31.3125 13.71875 30.902344 14.011719 30.496094 14.308594 L 131.6875 115.5 C 131.984375 115.09375 132.273438 114.679688 132.5625 114.269531 Z M 38.222656 9.386719 C 37.769531 9.636719 37.328125 9.898438 36.882812 10.15625 L 135.839844 109.113281 C 136.097656 108.667969 136.359375 108.226562 136.609375 107.773438 Z M 53.160156 3.25 C 52.613281 3.40625 52.0625 3.546875 51.523438 3.714844 L 142.277344 94.472656 C 142.449219 93.933594 142.589844 93.378906 142.746094 92.832031 Z M 82.625 1.09375 C 81.828125 0.988281 81.03125 0.882812 80.226562 0.804688 L 145.191406 65.769531 C 145.113281 64.964844 145.003906 64.167969 144.902344 63.371094 Z M 133.660156 33.160156 C 131.171875 29.371094 128.332031 25.832031 125.195312 22.582031 L 123.414062 20.800781 C 120.164062 17.664062 116.625 14.824219 112.835938 12.332031 Z M 71.484375 0.492188 C 70.796875 0.503906 70.109375 0.507812 69.425781 0.542969 L 145.453125 76.566406 C 145.484375 75.886719 145.488281 75.199219 145.503906 74.511719 Z M 61.785156 1.332031 C 61.1875 1.425781 60.59375 1.542969 59.996094 1.652344 L 144.34375 85.996094 C 144.453125 85.402344 144.566406 84.808594 144.660156 84.207031 Z M 25.796875 18.039062 C 25.417969 18.367188 25.039062 18.6875 24.667969 19.019531 L 126.976562 121.328125 C 127.308594 120.957031 127.628906 120.574219 127.953125 120.199219 Z M 8.941406 106.578125 C 9.84375 108.289062 10.808594 109.957031 11.839844 111.585938 L 34.410156 134.15625 C 36.039062 135.183594 37.703125 136.152344 39.417969 137.054688 Z M 0.785156 77.34375 C 0.832031 78.109375 0.890625 78.871094 0.960938 79.625 L 66.367188 145.035156 C 67.125 145.105469 67.886719 145.164062 68.652344 145.207031 Z M 142.671875 52.707031 C 142.371094 51.671875 142.046875 50.648438 141.703125 49.632812 L 96.363281 4.292969 C 95.347656 3.945312 94.320312 3.625 93.285156 3.324219 Z M 2.621094 89.71875 C 2.847656 90.675781 3.09375 91.625 3.359375 92.566406 L 53.429688 142.636719 C 54.371094 142.898438 55.320312 143.148438 56.277344 143.375 Z M 0.902344 66.921875 C 0.851562 67.574219 0.789062 68.226562 0.753906 68.882812 L 77.113281 145.242188 C 77.769531 145.203125 78.421875 145.144531 79.074219 145.09375 Z M 2.242188 57.722656 C 2.117188 58.308594 2.007812 58.898438 1.898438 59.488281 L 86.507812 144.097656 C 87.097656 143.988281 87.6875 143.875 88.273438 143.753906 Z M 15.558594 28.882812 C 15.253906 29.28125 14.953125 29.679688 14.65625 30.085938 L 115.910156 131.339844 C 116.316406 131.042969 116.714844 130.742188 117.113281 130.4375 Z M 11.261719 35.125 C 10.992188 35.5625 10.742188 36.007812 10.484375 36.453125 L 109.542969 135.511719 C 109.984375 135.253906 110.433594 135 110.871094 134.734375 Z M 4.53125 49.472656 C 4.355469 49.996094 4.167969 50.519531 4 51.046875 L 94.945312 141.996094 C 95.476562 141.828125 95.996094 141.640625 96.523438 141.460938 Z M 7.566406 41.96875 C 7.339844 42.449219 7.128906 42.933594 6.910156 43.421875 L 102.574219 139.085938 C 103.058594 138.867188 103.546875 138.65625 104.027344 138.429688 Z M 122.804688 125.585938 C 122.441406 125.925781 122.089844 126.277344 121.71875 126.609375 L 19.382812 24.277344 C 19.71875 23.90625 20.066406 23.554688 20.410156 23.191406 L 122.804688 125.585938 " fill-opacity="1" fill-rule="nonzero"/></g></g></g></g></svg>