<?xml version="1.0" encoding="utf-8"?>
<!-- Generator: Adobe Illustrator 24.0.1, SVG Export Plug-In . SVG Version: 6.00 Build 0)  -->
<svg version="1.1" id="Layer_1" xmlns="http://www.w3.org/2000/svg" xmlns:xlink="http://www.w3.org/1999/xlink" x="0px" y="0px"
	 viewBox="0 0 1366 768" style="enable-background:new 0 0 1366 768;" xml:space="preserve">
<style type="text/css">
	.st0{fill-rule:evenodd;clip-rule:evenodd;fill:#100D26;}
	.st1{fill-rule:evenodd;clip-rule:evenodd;fill:#251E3E;}
</style>
<g id="Artboard_1">
	<path class="st0" d="M-9,95l386,6l154-25c15-2.4,54.7-3.9,107.8,2.4L1430,172l106,568l-139,36H-26L-9,95z"/>
	<path id="Shape_12_copy" class="st0" d="M-9,15l386,6L531-4c15-2.4,54.7-3.9,107.8,2.4L1430,92l106,568l-139,36H-26L-9,15z"/>
	<path class="st1" d="M-15,83l326-3l137-42L315,57L-31,43L-15,83z"/>
	<path class="st1" d="M-26,246l229,6l445,46l97-3l-121,50L-4,324L-26,246z"/>
</g>
</svg>
