<svg id="Layer_1" data-name="Layer 1" xmlns="http://www.w3.org/2000/svg" viewBox="0 0 1060.23 124.16"><defs><style>.cls-1{font-size:112.68px;font-family:Ubuntu-Medium, Ubuntu;font-weight:500;}.cls-2{letter-spacing:-0.01em;}.cls-3{letter-spacing:0em;}.cls-4{letter-spacing:-0.01em;}.cls-5{letter-spacing:-0.01em;}</style></defs><title>logo with name</title><path d="M232.63,413.89c-5.06,24.7-10,49.14-15.07,73.55-2.64,12.75-5.47,25.46-8.12,38.21-.59,2.84-.71,5.82-4.58,6.07-3.58.24-4.76-2.37-6-5-5.63-11.45-11.48-22.79-16.88-34.35-2.13-4.57-4.61-6.9-10.12-7.12-13.3-.54-26.57-2-39.86-3-2.58-.2-5.29-.08-6-3.42-.59-2.83.55-4.83,3-6.43q47.59-31.44,95.17-62.91c1.81-1.19,3.82-2.83,6.24-1.2C232.44,409.68,233.31,411.64,232.63,413.89Zm-31.15,98.23,2.05-.42q8.29-40.63,16.6-81.26c.33-1.59,1.46-3.42-.45-4.6-2.61-1.6-3.54,1-4.52,2.41-10,14.76-19.94,29.61-29.94,44.39-1.2,1.76-1.81,3.21-.7,5.39C190.26,489.35,195.84,500.75,201.48,512.12Z" transform="translate(-125.82 -407.58)"/><text class="cls-1" transform="translate(128.8 99.42)">Sys<tspan class="cls-2" x="170.82" y="0">t</tspan><tspan class="cls-3" x="216.91" y="0">em-N</tspan><tspan class="cls-4" x="497.6" y="0">a</tspan><tspan x="556.31" y="0">viga</tspan><tspan class="cls-5" x="772.89" y="0">t</tspan><tspan x="818.63" y="0">or</tspan></text></svg>