<svg id="Layer_1" data-name="Layer 1" xmlns="http://www.w3.org/2000/svg" viewBox="0 0 116.56 135.2"><title>logo</title><path d="M547.4,394.36c-5.51,26.91-10.91,53.51-16.41,80.1-2.87,13.88-6,27.72-8.84,41.61-.64,3.09-.77,6.33-5,6.61-3.89.26-5.18-2.58-6.58-5.43-6.13-12.47-12.49-24.83-18.38-37.41-2.32-5-5-7.52-11-7.76-14.5-.58-28.95-2.16-43.42-3.3-2.8-.22-5.76-.09-6.52-3.72-.64-3.08.6-5.26,3.23-7q51.84-34.23,103.65-68.51c2-1.3,4.15-3.08,6.78-1.31C547.19,389.78,548.14,391.91,547.4,394.36Zm-33.92,107,2.23-.46q9-44.24,18.08-88.48c.35-1.74,1.59-3.73-.5-5-2.83-1.74-3.85,1.06-4.91,2.63-10.93,16.07-21.72,32.23-32.61,48.33-1.3,1.92-2,3.5-.76,5.87C501.27,476.53,507.34,489,513.48,501.33Z" transform="translate(-431.09 -387.5)"/></svg>